<?xml version="1.0" standalone="no"?>
<!DOCTYPE svg PUBLIC "-//W3C//DTD SVG 20010904//EN"
 "http://www.w3.org/TR/2001/REC-SVG-20010904/DTD/svg10.dtd">
<svg version="1.0" xmlns="http://www.w3.org/2000/svg"
 width="512.000000pt" height="512.000000pt" viewBox="0 0 512.000000 512.000000"
 preserveAspectRatio="xMidYMid meet">

<g transform="translate(0.000000,512.000000) scale(0.100000,-0.100000)"
fill="#000000" stroke="none">
<path d="M1788 4998 c-55 -15 -105 -74 -112 -135 -24 -205 -59 -292 -157 -397
-105 -113 -222 -169 -378 -182 -92 -8 -130 -26 -168 -83 -22 -33 -23 -40 -23
-287 l0 -253 -327 -3 c-361 -4 -375 -6 -457 -70 -57 -44 -85 -80 -112 -146
l-24 -57 0 -860 0 -860 23 -56 c29 -70 66 -117 126 -157 89 -60 109 -62 701
-62 l535 0 82 -122 c304 -457 726 -822 1193 -1033 274 -124 327 -132 485 -71
253 96 558 271 760 436 628 512 1026 1262 1131 2130 15 124 18 239 18 790 1
594 0 648 -16 677 -30 55 -68 73 -181 88 -120 16 -195 42 -276 96 -143 96
-220 228 -246 426 -15 113 -33 151 -88 181 -30 16 -114 17 -1242 19 -777 1
-1223 -2 -1247 -9z m2450 -120 c7 -7 12 -32 12 -58 0 -80 28 -183 76 -280 103
-207 307 -346 542 -366 42 -4 83 -11 90 -17 15 -12 17 -1200 2 -1358 -58 -581
-256 -1116 -581 -1564 -336 -464 -807 -820 -1301 -984 l-66 -22 -99 36 c-147
54 -403 184 -532 270 -303 203 -574 471 -771 764 l-59 89 237 4 c278 5 301 11
391 94 84 78 104 128 109 277 l4 117 253 0 252 0 124 -157 c68 -87 132 -166
142 -175 14 -15 35 -18 125 -18 l107 0 18 -50 c37 -105 132 -187 244 -210 128
-27 283 47 341 163 101 203 -7 423 -230 468 -145 29 -303 -65 -355 -211 l-18
-50 -82 0 -82 0 -138 173 -138 172 -282 3 -283 2 0 240 0 240 503 0 502 0 18
-50 c52 -146 210 -240 355 -211 140 28 232 118 264 259 9 42 9 67 0 110 -30
143 -122 235 -264 263 -145 29 -303 -65 -355 -211 l-18 -50 -502 0 -503 0 0
240 0 240 283 2 282 3 138 173 138 172 82 0 82 0 18 -50 c38 -106 132 -187
245 -211 211 -43 416 157 374 367 -30 145 -134 246 -279 269 -135 21 -291 -77
-340 -215 l-18 -50 -107 0 c-90 0 -111 -3 -125 -18 -10 -9 -74 -88 -142 -175
l-124 -157 -252 0 -253 0 -4 118 c-5 148 -25 198 -109 276 -100 93 -83 90
-636 94 l-483 3 0 238 c0 278 -5 265 106 275 164 14 298 78 420 200 64 64 90
99 122 166 48 98 72 183 72 255 0 30 6 60 16 73 l15 22 1208 0 c925 0 1210 -3
1219 -12z m-530 -1227 c153 -78 153 -294 0 -372 -75 -38 -189 -18 -244 43 -76
82 -72 222 8 294 62 57 164 72 236 35z m-1641 -141 c36 -21 61 -44 80 -77 l28
-48 0 -860 0 -860 -28 -48 c-19 -32 -44 -56 -80 -77 l-52 -30 -866 3 -866 2
-42 29 c-23 16 -54 50 -69 75 l-27 46 0 860 0 860 27 46 c24 41 78 88 118 102
8 3 400 6 870 6 l855 1 52 -30z m1641 -799 c153 -78 153 -294 0 -372 -75 -38
-189 -18 -244 43 -76 82 -72 222 8 294 62 57 164 72 236 35z m0 -940 c124 -64
153 -226 58 -329 -74 -83 -228 -83 -302 0 -76 82 -72 222 8 294 62 57 164 72
236 35z"/>
<path d="M680 3011 c-74 -23 -127 -69 -159 -141 -20 -43 -21 -64 -21 -426 0
-356 1 -382 18 -397 24 -22 55 -21 75 1 15 16 17 47 17 220 l0 202 214 0 215
0 3 -206 c3 -190 4 -207 22 -220 25 -18 47 -18 72 0 18 14 19 30 19 403 l0
388 -29 53 c-33 59 -76 96 -137 117 -45 16 -263 20 -309 6z m303 -125 c48 -32
57 -63 57 -191 l0 -115 -216 0 -216 0 4 119 c3 134 14 160 79 194 49 26 250
21 292 -7z"/>
<path d="M1367 3002 c-21 -23 -22 -56 -1 -76 11 -12 36 -16 90 -16 l74 0 0
-385 0 -385 -74 0 c-54 0 -79 -4 -90 -16 -21 -21 -20 -57 2 -77 16 -15 47 -17
219 -17 181 0 201 2 216 18 22 24 21 55 -1 75 -14 13 -38 17 -90 17 l-72 0 0
385 0 385 73 0 c59 0 77 4 90 18 22 24 21 55 -1 75 -16 15 -47 17 -219 17
-181 0 -201 -2 -216 -18z"/>
</g>
</svg>
